<svg width="81" height="20" viewBox="0 0 81 20" fill="none" xmlns="http://www.w3.org/2000/svg">
<rect width="80.7408" height="20" fill="none"/>
 <metadata id="metadata8">image/svg+xml</metadata>
 <defs>
  <clipPath clipPathUnits="userSpaceOnUse" id="clipPath18">
   <path d="m-418.36649,1608.47595l609.45,0l0,-807.87l-609.45,0l0,807.87z" id="path16"/>
  </clipPath>
 </defs>
 <g>
  <title>Layer 1</title>
  <g id="g10" transform="rotate(0.017317645251750946 40.42583084107336,9.959125518813314) matrix(0.19756899036974437,0,0,-0.19474325675577317,62.950125690537874,244.45280982857562) ">
   <g id="g12">
    <g id="g14" clip-path="url(#clipPath18)">
     <g id="g20">
      <path fill="#000000" fill-rule="nonzero" d="m-104.6106,1158.05416c0.032,0.633 0.07,1.643 0.103,3.023l0,26.556l-0.087,2.576c-0.021,0.546 -0.047,0.918 -0.075,1.116c-0.028,0.208 -0.072,0.385 -0.131,0.546c-0.202,0.654 -0.642,1.117 -1.303,1.398c-0.612,0.257 -1.518,0.381 -2.691,0.389l0,0.901l15.164,0.005c2.207,-0.009 4.196,-0.15 5.973,-0.439c1.778,-0.281 3.209,-0.674 4.305,-1.175c3.168,-1.504 4.735,-4.036 4.717,-7.632c0.039,-5.149 -3.346,-8.432 -10.353,-9.28l-1.175,-0.19c1.576,-0.058 3.705,-0.579 4.699,-0.811c0.983,-0.227 1.947,-0.587 2.894,-1.079c3.717,-1.869 5.549,-4.854 5.512,-8.99c0.018,-5.016 -2.427,-8.274 -7.392,-9.816c-1.083,-0.311 -2.445,-0.554 -4.088,-0.733c-1.651,-0.178 -3.439,-0.268 -5.373,-0.272l-14.883,0l0,0.905c1.754,0.022 2.959,0.29 3.493,0.918c0.221,0.211 0.38,0.447 0.484,0.716c0.107,0.272 0.172,0.74 0.207,1.368m4.668,35.265l0,-16.851l5.918,0c6.881,0.041 10.445,2.898 10.482,8.622c0.049,5.558 -3.705,8.27 -10.989,8.229l-5.411,0zm17.587,-27.896c-0.042,3.924 -1.46,6.703 -4.292,8.258c-0.86,0.435 -1.952,0.773 -3.265,1.014c-1.309,0.239 -2.757,0.359 -4.338,0.363l-5.692,0l0,-19.671l5.692,0c4.124,-0.017 7.139,0.753 8.996,2.365c0.939,0.778 1.654,1.824 2.15,3.144c0.494,1.318 0.74,2.832 0.749,4.527" id="path22"/>
     </g>
     <g id="g24">
      <path fill="#000000" fill-rule="nonzero" d="m-55.3538,1155.30025c-0.308,0.608 -0.525,1.332 -0.616,3.185l-0.029,0.545l-0.364,-0.414c-0.434,-0.483 -0.86,-0.913 -1.273,-1.273c-0.42,-0.363 -0.906,-0.736 -1.451,-1.112c-1.196,-0.881 -2.35,-1.501 -3.455,-1.861c-1.107,-0.36 -2.352,-0.534 -3.741,-0.521c-2.419,-0.013 -4.276,0.562 -5.603,1.691c-0.74,0.666 -1.325,1.505 -1.753,2.523c-0.422,1.017 -0.641,2.108 -0.65,3.283c0.026,4.325 2.68,7.112 8.112,8.349c1.436,0.334 2.954,0.608 4.551,0.819c1.599,0.215 3.417,0.392 5.445,0.529l0.211,3.771c0,1.29 -0.06,2.337 -0.186,3.131c-0.126,0.805 -0.335,1.508 -0.629,2.1c-0.804,1.571 -2.448,2.323 -4.821,2.323c-3.809,0.022 -5.872,-1.794 -6.087,-5.395c-0.02,-0.575 -0.074,-0.981 -0.151,-1.22c-0.073,-0.232 -0.197,-0.401 -0.37,-0.525c-0.38,-0.257 -0.984,-0.402 -1.848,-0.414c-1.869,-0.025 -2.568,0.529 -2.537,1.464c0.012,0.976 0.337,1.922 0.986,2.833c0.654,0.914 1.561,1.711 2.734,2.385c2.108,1.17 4.808,1.766 8.119,1.779c3.624,-0.013 6.053,-0.831 7.381,-2.403c0.538,-0.658 0.936,-1.476 1.193,-2.465c0.26,-0.984 0.391,-2.237 0.389,-3.758l-0.005,-0.319l-0.029,-1.476l-0.079,-3.896l-0.057,-5.354l-0.056,-2.593c0.006,-1.22 0.056,-2.15 0.143,-3.192c0.081,-1.013 0.444,-2.146 1.256,-2.444c0.844,-0.314 1.659,-0.438 3.209,-0.447c1.138,0.02 2.014,0.153 2.608,0.405c0.676,0.285 1.094,0.898 1.275,1.766c0.174,0.844 0.248,2.134 0.232,3.858l0,15.114c0.037,2.059 -0.202,3.506 -0.787,4.263c-0.574,0.737 -1.64,1.055 -3.104,1.038l0,0.807l8.064,0.583l0,-6.422l0.419,0.752c1.193,2.122 2.547,3.627 4.056,4.528c1.506,0.902 3.394,1.353 5.668,1.327c3.422,0.05 5.801,-1.095 7.194,-3.386c0.513,-0.769 0.883,-1.691 1.105,-2.775c0.221,-1.083 0.335,-2.465 0.326,-4.151l0,-11.678c-0.02,-1.741 0.052,-3.039 0.22,-3.883c0.174,-0.868 0.583,-1.476 1.263,-1.753c0.564,-0.236 1.874,-0.36 2.99,-0.388c1.048,0.028 1.856,0.161 2.411,0.4c0.659,0.29 1.06,0.902 1.229,1.766c0.164,0.847 0.237,2.134 0.215,3.858l0,27.457c0.022,1.575 -0.045,2.741 -0.202,3.494c-0.165,0.787 -0.57,1.324 -1.232,1.56c-0.575,0.202 -1.437,0.297 -2.568,0.302l0,0.801l8.386,0.43c-0.105,-1.864 -0.185,-3.766 -0.24,-5.714c-0.054,-2.03 -0.082,-3.804 -0.082,-5.322l0,-18.446l9.237,10.122c1.307,1.447 2.023,2.663 2.034,3.638c0.065,1.357 -1.302,1.969 -3.552,2.081l0,0.802l12.007,0l0,-0.814c-0.721,-0.083 -1.348,-0.216 -1.883,-0.398c-0.58,-0.198 -1.175,-0.483 -1.783,-0.851c-0.616,-0.372 -1.135,-0.716 -1.552,-1.026c-0.426,-0.318 -0.929,-0.773 -1.505,-1.36c-0.577,-0.588 -1.417,-1.476 -2.517,-2.672l-3.048,-3.283l7.981,-12.559c0.912,-1.488 1.75,-2.538 2.52,-3.133c0.735,-0.572 1.673,-0.939 2.802,-1.113l0,-0.819l-7.301,0c-0.2,0.405 -0.477,0.935 -0.829,1.584l-1.161,2.121l-0.89,1.597l-5.905,9.626l-4.644,-5.198l-0.011,-2.907c-0.022,-1.724 0.049,-3.014 0.217,-3.858c0.171,-0.868 0.577,-1.476 1.247,-1.766c0.587,-0.252 1.457,-0.385 2.591,-0.405l0,-0.794l-24.675,0l0,0.794c1.671,0.046 2.82,0.318 3.279,0.931c0.184,0.235 0.324,0.504 0.424,0.806c0.096,0.302 0.157,0.695 0.185,1.174c0.034,0.377 0.067,0.923 0.104,1.638c0.042,0.719 0.062,1.212 0.066,1.476l0,11.343c0.011,2.795 -0.289,4.866 -0.922,6.182c-0.964,2.071 -2.7,3.109 -5.163,3.118c-2.748,0.008 -4.937,-1.299 -6.56,-3.883c-0.612,-0.976 -1.087,-2.089 -1.431,-3.329c-0.339,-1.24 -0.517,-2.465 -0.52,-3.664l0,-9.763c-0.021,-1.741 0.051,-3.039 0.218,-3.883c0.174,-0.868 0.583,-1.476 1.264,-1.753c0.595,-0.248 1.478,-0.373 2.632,-0.393l0,-0.794l-12.137,0c-1.075,-0.037 -3.128,-0.091 -4.143,-0.078c-1.067,0.016 -1.58,0.128 -2.551,0.202c-0.863,0.253 -1.225,0.476 -1.51,1.042m-14.312,6.216c0.021,-1.841 0.468,-3.333 1.361,-4.458c0.895,-1.133 2.104,-1.716 3.597,-1.741c1.51,0.02 2.939,0.414 4.27,1.174c1.331,0.765 2.382,1.787 3.141,3.052c0.463,0.807 0.801,1.844 1.012,3.106c0.211,1.249 0.315,2.807 0.315,4.672l0,2.895c-2.704,-0.236 -4.638,-0.492 -6.041,-0.79c-1.416,-0.298 -2.665,-0.724 -3.755,-1.286c-2.582,-1.282 -3.879,-3.507 -3.9,-6.624" id="path26"/>
     </g>
     <g id="g28">
      <path fill="#000000" fill-rule="nonzero" d="m-307.10529,1171.15865l0,-10.053c-0.021,-1.612 0.072,-2.811 0.277,-3.593c0.208,-0.781 0.654,-1.298 1.345,-1.55c0.688,-0.252 1.749,-0.398 3.176,-0.422l0,-1.406l-15.79,0l0,1.406c1.344,0.024 2.339,0.17 2.988,0.422c0.645,0.252 1.062,0.769 1.253,1.55c0.189,0.782 0.276,1.981 0.256,3.593l0,26.432c0.018,1.613 -0.065,2.812 -0.248,3.594c-0.184,0.786 -0.587,1.306 -1.203,1.567c-0.618,0.261 -1.567,0.413 -2.847,0.459l0,1.406l15.04,0c5.07,0.021 8.785,-0.873 11.143,-2.683c2.359,-1.812 3.525,-4.661 3.497,-8.561c0.018,-5.474 -2.115,-9.059 -6.396,-10.755c-1.116,-0.434 -2.54,-0.777 -4.269,-1.025c-1.733,-0.248 -3.657,-0.377 -5.774,-0.381l-2.448,0zm0,1.567l2.6,0c3.123,0.013 5.42,0.748 6.895,2.217c0.801,0.848 1.408,1.964 1.824,3.341c0.412,1.373 0.622,2.944 0.624,4.714c-0.016,6.657 -2.933,9.99 -8.743,9.999l-3.2,0l0,-20.271z" id="path30"/>
     </g>
     <g id="g32">
      <path fill="#000000" fill-rule="nonzero" d="m-262.79769,1169.46334l-18.37,0c0.018,-1.96 0.133,-3.605 0.343,-4.933c0.209,-1.324 0.546,-2.535 1.008,-3.634c1.526,-3.557 3.883,-5.335 7.073,-5.335c1.806,0.012 3.443,0.542 4.914,1.596c1.468,1.054 2.691,2.572 3.664,4.544l1.301,-0.86c-1.279,-2.547 -2.842,-4.416 -4.687,-5.611c-1.845,-1.191 -4.095,-1.783 -6.754,-1.77c-4.181,0.054 -8.028,1.39 -10.436,4.007c-2.41,2.618 -3.638,6.207 -3.686,10.756c0.048,4.586 1.236,8.212 3.563,10.884c2.325,2.67 6.038,4.035 10.04,4.093c2.661,-0.005 5.231,-0.612 7.055,-1.82c1.824,-1.203 3.169,-2.969 4.036,-5.293c0.283,-0.769 0.499,-1.649 0.644,-2.646c0.146,-0.993 0.244,-2.32 0.292,-3.978m-18.319,1.559l11.492,0c-0.047,1.663 -0.135,3.003 -0.267,4.015c-0.129,1.018 -0.337,1.923 -0.616,2.721c-0.972,2.828 -2.462,4.23 -4.472,4.206c-2.255,-0.022 -3.936,-1.601 -5.045,-4.743c-0.284,-0.815 -0.51,-1.708 -0.684,-2.676c-0.172,-0.968 -0.309,-2.142 -0.408,-3.523" id="path34"/>
     </g>
     <g id="g36">
      <path fill="#000000" fill-rule="nonzero" d="m-261.6224,1182.43114l10.19,0.703c0.055,-1.017 0.095,-1.869 0.123,-2.559c0.028,-0.696 0.041,-1.303 0.041,-1.832l0,-1.625c2.214,4.047 4.888,6.09 8.021,6.124c1.355,-0.026 2.456,-0.422 3.3,-1.183c0.846,-0.765 1.282,-1.745 1.307,-2.937c-0.019,-0.992 -0.385,-1.786 -1.097,-2.385c-0.711,-0.595 -1.647,-0.906 -2.804,-0.918c-1.392,-0.045 -2.241,0.529 -2.548,1.732c-0.201,0.745 -0.408,1.249 -0.624,1.518c-0.214,0.269 -0.529,0.393 -0.949,0.381l-0.107,0c-1.067,-0.091 -2.078,-0.939 -3.037,-2.552c-0.432,-0.802 -0.757,-1.687 -0.974,-2.658c-0.217,-0.972 -0.325,-2.093 -0.325,-3.359l0,-10.027c-0.022,-1.601 0.057,-2.778 0.233,-3.54c0.175,-0.756 0.575,-1.252 1.195,-1.488c0.623,-0.232 1.59,-0.364 2.908,-0.393l0,-1.299l-15.069,0l0,1.299c1.228,-0.004 2.139,0.115 2.729,0.359c0.593,0.244 0.976,0.753 1.152,1.522c0.178,0.778 0.256,1.956 0.24,3.54l0,15.018c0.048,2.234 -0.174,3.685 -0.672,4.355c-0.498,0.67 -1.575,0.972 -3.233,0.901l0,1.303z" id="path38"/>
     </g>
     <g id="g40">
      <path fill="#000000" fill-rule="nonzero" d="m-226.5335,1183.13423l0.055,-5.367c2.195,3.613 5.339,5.437 9.432,5.474c4.162,0.025 6.729,-1.869 7.696,-5.694c1.176,1.973 2.522,3.416 4.031,4.33c1.509,0.922 3.273,1.377 5.291,1.364c3.19,-0.016 5.539,-1.067 7.048,-3.142c0.588,-0.79 1.01,-1.749 1.259,-2.887c0.252,-1.14 0.374,-2.617 0.367,-4.432l0,-11.926c-0.019,-1.584 0.061,-2.762 0.237,-3.535c0.176,-0.774 0.562,-1.283 1.151,-1.527c0.594,-0.244 1.504,-0.363 2.732,-0.355l0,-1.303l-14.691,0l0,1.303c1.175,-0.008 2.047,0.111 2.616,0.355c0.57,0.244 0.941,0.753 1.109,1.527c0.174,0.773 0.25,1.951 0.234,3.535l0,11.872c0.013,2.848 -0.339,4.904 -1.05,6.165c-0.713,1.265 -1.863,1.882 -3.451,1.857c-1.906,0.037 -3.515,-0.956 -4.823,-2.981c-1.128,-1.688 -1.69,-3.516 -1.681,-5.476l0,-11.437c-0.017,-1.584 0.06,-2.762 0.232,-3.535c0.174,-0.774 0.549,-1.283 1.125,-1.527c0.578,-0.244 1.461,-0.363 2.655,-0.355l0,-1.303l-14.528,0l0,1.303c1.174,-0.008 2.047,0.111 2.617,0.355c0.569,0.244 0.939,0.753 1.108,1.527c0.172,0.773 0.251,1.951 0.231,3.535l0,11.926c0.028,5.367 -1.435,8.022 -4.39,7.968c-1.838,-0.066 -3.38,-0.939 -4.62,-2.614c-1.243,-1.679 -1.889,-3.771 -1.937,-6.276l0,-11.004c-0.017,-1.601 0.059,-2.791 0.231,-3.561c0.171,-0.772 0.54,-1.277 1.11,-1.513c0.569,-0.236 1.44,-0.351 2.616,-0.343l0,-1.303l-14.691,0l0,1.303c1.23,-0.008 2.137,0.107 2.731,0.343c0.591,0.236 0.976,0.741 1.152,1.513c0.177,0.77 0.256,1.96 0.236,3.561l0,15.068c0.059,2.208 -0.164,3.635 -0.664,4.288c-0.498,0.657 -1.613,0.959 -3.345,0.918l0,1.303l10.569,0.703z" id="path42"/>
     </g>
     <g id="g44">
      <path fill="#000000" fill-rule="nonzero" d="m-148.6966,1180.65285l0,-18.104c-0.002,-1.178 0.042,-2.154 0.129,-2.927c0.087,-0.773 0.225,-1.422 0.413,-1.951c0.229,-0.605 0.584,-1.088 1.062,-1.453c0.481,-0.359 1.013,-0.544 1.592,-0.553c1.159,0.016 2.423,0.579 3.797,1.678l0.758,-1.351c-2.177,-1.828 -4.651,-2.73 -7.425,-2.713c-2.992,0.045 -5.033,1.042 -6.127,2.981c-0.214,0.43 -0.381,0.918 -0.5,1.472c-0.116,0.55 -0.2,1.29 -0.246,2.229c-0.046,0.935 -0.069,2.196 -0.067,3.78l0,16.912l-3.089,0l0,1.625c1.182,0.046 2.181,0.294 3.002,0.745c0.822,0.454 1.537,1.161 2.149,2.129c0.479,0.736 0.875,1.555 1.184,2.452c0.311,0.898 0.584,2.014 0.821,3.35l2.711,0.268c-0.037,-0.715 -0.069,-1.443 -0.092,-2.183c-0.023,-0.736 -0.042,-1.625 -0.053,-2.662c-0.013,-1.038 -0.019,-2.37 -0.019,-3.987l6.56,0l0,-1.737l-6.56,0z" id="path46"/>
     </g>
     <g id="g48">
      <path fill="#000000" fill-rule="nonzero" d="m-158.42658,1155.27974l0,-1.146c-1.585,-0.103 -2.226,-0.103 -3.893,-0.103c-1.323,0 -2.693,0.021 -3.83,0.447c-0.703,0.265 -1.095,0.492 -1.62,1.042c-0.366,0.583 -0.599,0.616 -0.716,2.233c-1.399,-1.513 -2.856,-2.621 -4.369,-3.337c-1.517,-0.711 -3.149,-1.063 -4.899,-1.055c-2.602,0.029 -4.637,0.745 -6.107,2.155c-1.469,1.41 -2.214,3.349 -2.242,5.814c-0.009,4.652 2.882,7.543 8.672,8.672c2.612,0.507 5.574,0.851 8.891,1.033l0,3.523c0.027,2.821 -0.272,4.776 -0.894,5.864c-0.625,1.087 -1.736,1.608 -3.334,1.558c-1.699,0.038 -2.909,-0.578 -3.632,-1.84c-0.262,-0.438 -0.455,-0.934 -0.576,-1.501c-0.12,-0.562 -0.218,-1.343 -0.291,-2.348c-0.043,-0.968 -0.323,-1.655 -0.841,-2.06c-0.517,-0.409 -1.339,-0.607 -2.466,-0.599c-2.512,0.02 -3.776,0.852 -3.794,2.494c0.008,0.959 0.305,1.877 0.889,2.745c0.582,0.873 1.407,1.638 2.472,2.299c2.257,1.389 5.221,2.076 8.891,2.059c3.73,0.017 6.404,-0.723 8.021,-2.224c0.729,-0.687 1.264,-1.563 1.606,-2.626c0.343,-1.067 0.511,-2.432 0.507,-4.098l-0.055,-4.714l-0.053,-4.714c-0.044,-1.547 -0.064,-2.522 -0.054,-2.927c-0.02,-1.957 0.042,-3.383 0.184,-4.281c0.143,-0.901 0.299,-1.298 0.889,-1.786c1.035,-0.592 1.923,-0.575 2.644,-0.579m-10.113,10.33l0,4.172c-3.881,-0.261 -6.634,-0.98 -8.26,-2.15c-1.623,-1.174 -2.413,-3.002 -2.364,-5.488c0.016,-1.951 0.416,-3.498 1.2,-4.643c0.781,-1.146 1.846,-1.729 3.19,-1.753c1.103,0.008 2.121,0.326 3.056,0.955c0.934,0.624 1.667,1.501 2.202,2.621c0.348,0.686 0.598,1.522 0.754,2.515c0.151,0.992 0.226,2.249 0.222,3.771" id="path50"/>
     </g>
     <g id="g52">
      <path fill="#000000" fill-rule="nonzero" d="m-111.75519,1155.27974l0,-1.146c-1.586,-0.103 -2.226,-0.107 -3.894,-0.107c-1.323,0 -2.69,0.021 -3.83,0.447c-0.703,0.264 -1.094,0.488 -1.618,1.046c-0.367,0.579 -0.601,0.613 -0.717,2.229c-1.4,-1.509 -2.856,-2.621 -4.37,-3.337c-1.516,-0.707 -3.149,-1.063 -4.899,-1.055c-2.602,0.029 -4.636,0.749 -6.107,2.154c-1.468,1.411 -2.213,3.35 -2.242,5.815c-0.008,4.652 2.883,7.542 8.673,8.671c2.612,0.509 5.574,0.852 8.89,1.034l0,3.523c0.027,2.82 -0.272,4.776 -0.894,5.868c-0.624,1.087 -1.736,1.604 -3.334,1.554c-1.699,0.037 -2.909,-0.579 -3.632,-1.84c-0.262,-0.438 -0.455,-0.934 -0.575,-1.501c-0.12,-0.562 -0.219,-1.343 -0.29,-2.348c-0.044,-0.964 -0.325,-1.651 -0.843,-2.06c-0.516,-0.409 -1.338,-0.607 -2.466,-0.599c-2.511,0.02 -3.775,0.851 -3.794,2.493c0.008,0.96 0.305,1.878 0.889,2.746c0.582,0.872 1.408,1.638 2.473,2.295c2.257,1.393 5.221,2.08 8.89,2.063c3.73,0.017 6.405,-0.723 8.022,-2.224c0.729,-0.687 1.264,-1.564 1.605,-2.626c0.342,-1.067 0.512,-2.432 0.507,-4.094l-0.054,-4.718l-0.053,-4.714c-0.045,-1.547 -0.064,-2.522 -0.055,-2.927c-0.019,-1.956 0.043,-3.383 0.184,-4.281c0.144,-0.901 0.299,-1.299 0.889,-1.786c1.035,-0.592 1.924,-0.571 2.645,-0.575m-10.114,10.325l0,4.177c-3.881,-0.265 -6.634,-0.984 -8.26,-2.154c-1.626,-1.175 -2.413,-3.002 -2.364,-5.488c0.017,-1.952 0.417,-3.498 1.2,-4.643c0.782,-1.146 1.847,-1.729 3.19,-1.753c1.104,0.008 2.122,0.326 3.056,0.955c0.934,0.624 1.668,1.501 2.201,2.621c0.35,0.687 0.6,1.522 0.754,2.515c0.153,0.992 0.228,2.249 0.223,3.77" id="path54"/>
     </g>
     <g id="g56">
      <path fill="#0096b8" fill-rule="nonzero" d="m-0.14188,1221.94725l-0.107,-2.088l40.052,-46.989l1.44,-0.231l0.181,0.091l0.704,1.299l-17.083,57.176l-2.899,1.954l-22.288,-11.212z" id="path58"/>
     </g>
     <g id="g60">
      <path fill="#005675" fill-rule="nonzero" d="m-0.2493,1219.85884l40.053,-46.988l1.437,-0.232l-29.537,44.938l-11.953,2.282z" id="path62"/>
     </g>
     <g id="g64">
      <path fill="#0bbbef" fill-rule="nonzero" d="m22.1462,1233.15966l-10.211,-12.021l4.17,-1.823l8.94,11.888l0,0.002l-2.899,1.954z" id="path66"/>
     </g>
     <g id="g68">
      <path fill="#007290" fill-rule="nonzero" d="m-0.2493,1219.85884l11.953,-2.282l0.23,3.562l-12.079,0.804l-0.104,-2.084z" id="path70"/>
     </g>
     <g id="g72">
      <path fill="#007290" fill-rule="nonzero" d="m16.10131,1219.31545l25.323,-46.585l0.703,1.302l-17.08,57.169l-8.946,-11.886z" id="path74"/>
     </g>
     <g id="g76">
      <path fill="#81b73e" fill-rule="nonzero" d="m64.13451,1234.29244l25.9,-11.907l0.048,-3.36l-42.503,-64.382l-1.939,-0.509l-0.287,0.129l-0.605,1.451l17.13,77.323l2.256,1.255z" id="path78"/>
     </g>
     <g id="g80">
      <path fill="#69931d" fill-rule="nonzero" d="m72.82882,1217.55565l-27.187,-63.421l1.936,0.508l42.505,64.383l-17.254,-1.47z" id="path82"/>
     </g>
     <g id="g84">
      <path fill="#277933" fill-rule="nonzero" d="m61.8767,1233.03563l-17.13,-77.317l0.607,-1.452l22.585,65.981l-6.062,12.788z" id="path86"/>
     </g>
     <g id="g88">
      <path fill="#aecc53" fill-rule="nonzero" d="m71.8503,1222.14794l0.98,-4.594l17.252,1.472l-0.047,3.357l-0.002,0l-18.183,-0.235z" id="path90"/>
     </g>
     <g id="g92">
      <path fill="#69931d" fill-rule="nonzero" d="m61.87859,1233.03756l6.056,-12.786l3.916,1.896l-7.716,12.143l-2.256,-1.253z" id="path94"/>
     </g>
     <g id="g96">
      <path fill="#e4032e" fill-rule="nonzero" d="m24.57391,1252.61135l1.034,1.985l33.155,0.357l2.144,-2.222l-15.885,-53.078l-1.009,-0.583l-0.031,0.004l-1.088,0.733l-18.32,52.804z" id="path98"/>
     </g>
     <g id="g100">
      <path fill="#b51227" fill-rule="nonzero" d="m24.57592,1252.61525l12.846,-6.399l2.387,2.826l-14.204,5.552l-1.029,-1.979z" id="path102"/>
     </g>
     <g id="g104">
      <path fill="#791b15" fill-rule="nonzero" d="m24.57391,1252.61135l18.32,-52.804l1.082,-0.733l-6.554,47.144l-12.848,6.395l0,-0.002z" id="path106"/>
     </g>
     <g id="g108">
      <path fill="#b51227" fill-rule="nonzero" d="m43.65502,1246.20995l0.358,-47.139l1.009,0.587l15.883,53.073l-17.25,-6.521z" id="path110"/>
     </g>
     <g id="g112">
      <path fill="#ea5160" fill-rule="nonzero" d="m58.76342,1254.95555l-18.951,-5.915l3.843,-2.829l17.25,6.519l-2.142,2.225z" id="path114"/>
     </g>
    </g>
   </g>
  </g>
 </g>
</svg>