<svg width="77" height="18" viewBox="0 0 77 18" fill="none" xmlns="http://www.w3.org/2000/svg">
<g clip-path="url(#clip0)">
<path d="M20.6989 4.51773H24.8213C26.491 4.51773 27.7356 5.24893 27.7356 6.78945C27.7356 7.91886 27.1581 8.54765 26.1563 8.88139V8.90718C27.3508 9.15142 27.9671 9.79311 27.9671 10.8838C27.9671 13.0274 26.0789 13.4764 24.4738 13.4764H20.6989V4.51773ZM23.0872 8.0607H23.755C24.5383 8.0607 25.348 7.86804 25.348 7.11029C25.348 6.28959 24.577 6.21223 23.7801 6.21223H23.0872V8.0607ZM23.0872 11.7827H23.7938C24.6673 11.7827 25.5788 11.6537 25.5788 10.7428C25.5788 9.76732 24.6415 9.67782 23.8188 9.67782H23.0872V11.7827Z" fill="#00529C"/>
<path d="M31.1022 4.5177H34.0302L37.4848 13.4764H34.865L34.1971 11.5642H30.8328L30.1262 13.4764H27.6992L31.1022 4.5177ZM32.5662 6.36616H32.5404L31.3845 9.87044H33.6325L32.5662 6.36616Z" fill="#00529C"/>
<path d="M37.8172 4.5177H40.8605L43.8916 10.6016H43.9167L43.8787 4.5177H46.0621V13.4764H43.0947L39.9619 7.35373H39.9368L40.0127 13.4764H37.8172V4.5177Z" fill="#00529C"/>
<path d="M46.8726 4.5177H49.2609V8.17595H49.2868L51.9832 4.5177H54.8596L51.5468 8.6887L55.1168 13.4764H52.0728L49.2868 9.40776H49.2609V13.4764H46.8726V4.5177Z" fill="#00529C"/>
<path d="M58.0788 4.51773H62.2013C63.8702 4.51773 65.1163 5.24893 65.1163 6.78945C65.1163 7.91886 64.5388 8.54765 63.537 8.88139V8.90718C64.7316 9.15142 65.3471 9.79311 65.3471 10.8838C65.3471 13.0274 63.4596 13.4764 61.8545 13.4764H58.0788V4.51773ZM60.4672 8.0607H61.135C61.919 8.0607 62.7272 7.86804 62.7272 7.11029C62.7272 6.28959 61.9577 6.21223 61.1608 6.21223H60.4672V8.0607ZM60.4672 11.7827H61.1737C62.0465 11.7827 62.9587 11.6537 62.9587 10.7428C62.9587 9.76732 62.0214 9.67782 61.1995 9.67782H60.4672V11.7827Z" fill="#00529C"/>
<path d="M65.8769 4.51774H70.1406C71.7328 4.51774 73.0298 5.2368 73.0298 6.77731C73.0298 7.97044 72.4652 8.7661 71.3093 9.03537V9.06116C72.0789 9.26671 72.1305 9.94709 72.5805 11.0378L73.4533 13.4764H70.9625L70.4487 11.86C69.9607 10.3195 69.6518 9.93344 68.7662 9.93344H68.2653V13.4764H65.8769V4.51774ZM68.2653 8.2397H68.8944C69.6655 8.2397 70.6415 8.21391 70.6415 7.1998C70.6415 6.3662 69.8066 6.21223 68.8944 6.21223H68.2653V8.2397Z" fill="#00529C"/>
<path d="M74.1117 4.51748H76.5V13.4761H74.1117V4.51748Z" fill="#00529C"/>
<path d="M15.2483 0H2.74807C1.23022 0 0 1.25987 0 2.81404V2.84362V15.1867C0 16.7257 1.20745 17.9772 2.70557 18H15.2415C16.7594 18 17.9903 16.7409 17.9903 15.1867L17.9957 2.81404C17.9957 1.25987 16.7662 0 15.2483 0ZM4.23329 16.5581L3.55177 16.5657C2.72606 16.5657 2.05669 15.8876 2.05669 15.0509L2.0529 14.9319V3.50579L2.05745 2.88989C2.08856 2.08057 2.70405 1.42978 3.50927 1.42978H4.89583C6.15262 1.42978 7.17109 2.52202 7.17109 3.80919C7.17109 4.44633 6.92141 5.02431 6.5169 5.44452L2.97954 9.03224L6.29529 12.4068C6.72257 12.8475 6.9806 13.4255 6.9806 14.0588C6.9806 15.4393 5.75114 16.5581 4.23329 16.5581ZM14.4264 16.5467L8.24498 16.5444C8.24498 16.5444 8.95913 15.0009 8.95913 14.0452C8.95913 12.8794 8.5698 11.8387 7.95962 11.15L5.84525 8.99583L8.00288 6.76735C8.64569 6.16434 9.07221 5.09334 9.07221 3.87291C9.07221 2.90658 8.80506 2.05099 8.37475 1.42978H9.87211C11.1289 1.42978 12.1481 2.52202 12.1481 3.80919C12.1481 4.44633 11.8984 5.02431 11.4939 5.44452L8.02413 8.99507L15.2309 16.3396C15.0025 16.483 14.7148 16.5467 14.4264 16.5467ZM15.9359 14.2538L10.7714 8.99279L13.2311 6.49429C13.7313 5.86853 14.0492 4.92647 14.0492 3.87291C14.0492 2.90051 13.7783 2.02292 13.3442 1.40171L14.4446 1.43509C15.2704 1.43509 15.9397 2.11318 15.9397 2.94981L15.9359 14.2538Z" fill="#00529C"/>
</g>
<defs>
<clipPath id="clip0">
<rect width="76.5" height="18" fill="white"/>
</clipPath>
</defs>
</svg>
