<svg width="58" height="18" viewBox="0 0 58 18" fill="none" xmlns="http://www.w3.org/2000/svg">
<path d="M31.1128 8.56819C34.7383 6.92373 35.2745 1.55741 30.1174 1.55741H24.1452L21.9381 5.88509H22.9767L20.3368 16.2282H27.2611C32.3127 16.2714 34.5846 10.323 31.1128 8.56819ZM27.2611 12.4632H25.53L26.1791 10.1263H27.8236C29.7711 10.5157 28.5595 12.5497 27.2611 12.4632ZM28.2997 7.48624H26.8284L27.2611 5.45226H28.9056C30.4945 5.84178 29.1221 7.57285 28.2997 7.48624Z" fill="#005FAF" stroke="#005FAF" stroke-width="0.0562103"/>
<path d="M45.2901 7.08443L47.5574 3.08199L44.4894 1.48171L44.0893 1.9756C42.4342 1.09951 33.7678 2.30915 33.2252 10.8582C33.5496 18.0298 41.5856 16.7397 42.3738 16.2847L44.584 11.7158C42.4194 13.1416 37.9871 13.8261 37.7996 9.54305C38.1883 6.01117 42.3583 4.6922 45.2901 7.08443ZM56.604 1.55741H49.6339L47.4184 5.75554H48.5565L43.3038 16.2282H48.3881L49.432 13.7022H52.553L52.6308 16.2282H57.3112L56.604 1.55741ZM50.846 10.3012L52.5529 6.22696L52.6307 10.3012H50.846Z" fill="#005FAF" stroke="#005FAF" stroke-width="0.0562103"/>
<path d="M13.077 15.5278L13.3477 15.4493L13.0508 15.0389L13.077 15.5278ZM8.63177 15.458L8.57941 15.8248C8.71417 15.8116 8.88008 15.9278 8.94622 15.6676C8.94126 15.4648 8.78689 15.4536 8.63177 15.458ZM10.789 15.4493C10.7665 15.3494 10.6831 15.2758 10.4745 15.3446L10.5444 15.7199C10.7158 15.682 10.8039 15.5806 10.789 15.4493ZM5.91579 15.142L5.8324 15.4756C5.96642 15.4812 6.12339 15.5899 6.21236 15.3922C6.21832 15.2684 6.22341 15.145 5.91579 15.142ZM10.6056 15.9995L10.6667 16.3838C10.8098 16.3874 10.9404 16.3014 10.9025 16.1219C10.866 15.9491 10.721 15.9764 10.6056 15.9995Z" fill="#005FAF"/>
<path d="M16.285 1.75521C11.6605 -0.600666 6.13755 -0.535146 1.73132 1.65246C-0.540792 5.65229 -0.613137 11.2487 1.73132 16.2054C6.58564 18.6619 11.9546 18.5001 16.3191 16.3081C18.3703 12.0998 18.7091 7.03591 16.285 1.75521ZM8.47469 13.6987L8.20057 13.7018C8.13269 12.9444 7.95164 12.3078 7.56323 11.8206C5.78215 9.5871 2.14132 11.2687 3.07684 7.47283C3.56328 5.5323 9.11177 4.3878 8.47469 13.6987ZM3.08342 9.9497C3.47232 10.7413 5.90885 10.8709 6.75466 11.4769C8.09633 12.438 7.90374 13.7022 7.90374 13.7022H7.58731C6.96437 11.7928 5.21605 13.3046 3.81568 12.7904C2.93649 12.4777 2.29817 11.1222 3.08342 9.9497ZM7.52266 16.1742L7.6537 15.135L7.88947 15.1525L7.78461 16.2965C7.67889 16.8004 6.92752 16.733 6.83271 16.2528L6.95494 15.0651L7.23439 15.1089L7.11216 16.1044C7.12767 16.4338 7.45813 16.4141 7.52266 16.1742ZM6.26797 16.458L5.99919 16.3931C6.03071 16.171 6.29415 15.7191 5.77347 15.7191L5.62853 16.3097L5.33195 16.2542L5.64702 14.8362C6.41713 14.92 6.48451 15.1344 6.49977 15.3644C6.46937 15.5429 6.42184 15.6674 6.26809 15.698C6.44803 15.8613 6.2702 16.2035 6.26797 16.458ZM4.56085 14.8698C4.48676 14.9681 4.33848 15.3114 4.31701 15.5851C4.29418 15.8751 4.57276 15.814 4.64213 15.7801C4.69809 15.7529 4.73966 15.52 4.73966 15.52L4.54459 15.455L4.60961 15.2601L5.04865 15.4064L4.83732 16.138L4.65851 16.0891L4.67476 15.9753C4.45587 16.0751 4.05518 16.0003 4.00814 15.7477C3.96111 15.5448 4.10357 14.9297 4.33326 14.6423C4.5565 14.3629 5.1004 14.636 5.11367 14.8049C5.12683 14.9732 5.06044 15.1625 5.06044 15.1625L4.85569 15.1239C4.85569 15.1239 4.86822 15.0631 4.88609 14.9673C4.90495 14.8658 4.64027 14.7642 4.56085 14.8698ZM8.55324 16.0606L8.50087 16.6895L8.28259 16.6808L8.36114 15.1873C8.90627 15.1986 9.21874 15.2741 9.20831 15.659C9.1758 16.1849 8.74992 16.0666 8.55324 16.0606ZM9.09663 13.7021H8.73143C8.69904 12.4088 8.94772 10.0433 8.2682 8.30239C7.75334 6.98267 6.45038 6.38902 6.16162 5.32295C5.70447 3.63556 6.48252 1.80981 9.09663 1.66921C11.3629 1.90188 12.0592 3.65144 11.6726 5.28039C11.008 6.90909 10.3433 6.67505 9.51569 8.29742C8.83976 10.0366 9.09713 12.315 9.09663 13.7021ZM13.1468 16.0956L12.8936 16.1829L12.8149 14.6808L13.1119 14.6022L13.8455 15.8423L13.6446 15.9733L13.4 15.6241L13.1205 15.7289L13.1468 16.0956ZM10.1921 13.7021H9.9C10.1407 10.3807 14.3145 11.1023 14.696 9.9497C15.3557 11.0923 15.1185 12.0558 14.4297 12.5497C12.718 13.7774 11.0766 11.6411 10.1921 13.7021ZM11.7409 15.3796L11.8719 16.0695C11.9535 16.2285 12.0088 16.1991 12.1339 16.183C12.279 16.0781 12.2487 15.9758 12.2212 15.8424L12.4745 15.8075C12.5405 16.3074 12.3029 16.3584 12.1252 16.3926C11.7441 16.4199 11.6694 16.3457 11.5663 15.8512C11.5062 15.428 11.4025 14.981 11.7584 14.8993C12.3426 14.8101 12.3081 15.0731 12.361 15.2573L12.1077 15.3011C12.0673 15.1428 12.0091 15.08 11.8806 15.0917C11.7636 15.1454 11.7156 15.2324 11.7409 15.3796ZM11.2082 16.0956C11.2203 16.3131 11.1465 16.4575 11.0073 16.5061L10.4134 16.6283L10.1776 15.1873C10.2994 15.1675 10.8969 14.9486 11.0421 15.3447C11.1137 15.5865 11.0395 15.6733 10.9548 15.7812C11.1155 15.8329 11.1697 15.9579 11.2082 16.0956ZM9.68309 8.86439C11.0061 5.13917 14.0336 5.79748 14.7051 7.47296C15.6249 10.835 12.6629 9.91296 10.7655 11.2916C10.0484 11.9153 9.67105 12.6308 9.66547 13.7155H9.34035C9.32086 11.5307 9.2855 9.9837 9.68309 8.86439Z" fill="#005FAF"/>
</svg>
