<svg width="56" height="18" viewBox="0 0 56 18" fill="none" xmlns="http://www.w3.org/2000/svg">
<path fill-rule="evenodd" clip-rule="evenodd" d="M0.830994 7.18612L5.36845 12.9278L0.830994 16.6995V7.18612Z" fill="#F15A23"/>
<path fill-rule="evenodd" clip-rule="evenodd" d="M2.65714 16.6995L6.07134 13.8344L8.43116 16.6995H2.65714Z" fill="#F15A23"/>
<path fill-rule="evenodd" clip-rule="evenodd" d="M0.830994 4.11507L2.0151 5.6176L6.8837 11.7203L8.46132 10.4601C8.46132 10.4601 7.15162 8.91338 6.27221 7.18739C4.55287 3.81287 5.77012 1.71189 5.77012 1.71189H0.830994V4.11507Z" fill="#F15A23"/>
<path fill-rule="evenodd" clip-rule="evenodd" d="M7.57764 12.6611L9.18432 11.3299C9.18432 11.3299 10.7188 13.3562 12.4981 13.8344C14.8298 14.4611 15.8621 12.9278 15.8621 12.9278V16.6995H10.7408L11.8956 15.6979C11.8956 15.6979 11.2931 16.1009 9.81955 15.077C8.94983 14.4727 7.57764 12.6611 7.57764 12.6611Z" fill="#F15A23"/>
<path fill-rule="evenodd" clip-rule="evenodd" d="M7.72539 1.69963C7.72539 1.69963 7.21283 2.40004 7.57768 4.11379C7.96765 5.94556 9.51856 7.88427 9.51496 7.84087C9.51496 7.84087 9.61467 5.91581 10.7408 4.78612C13.1413 2.37817 15.8621 3.8116 15.8621 3.8116V1.71062L7.72539 1.69963Z" fill="#F15A23"/>
<path fill-rule="evenodd" clip-rule="evenodd" d="M15.8621 6.35007C15.8621 6.35007 14.3441 5.04573 13.0243 5.04573C11.336 5.04573 10.4145 6.50785 10.4145 7.56847C10.4145 9.11333 11.1537 9.97174 11.8956 10.716C12.9619 11.7856 14.259 12.9391 15.8621 12.0107C15.8621 10.2535 15.8621 6.35007 15.8621 6.35007Z" fill="#F15A23"/>
<path fill-rule="evenodd" clip-rule="evenodd" d="M33.1503 1.85677H36.7325C36.7325 1.85677 39.9059 6.67674 41.4655 8.66815C43.025 10.6596 44.7037 12.9278 44.7037 12.9278C44.7037 12.9278 44.7037 6.35008 44.7037 2.9362C44.7037 2.50467 43.5742 1.85677 43.5742 1.85677H47.705C47.705 1.85677 46.3496 2.41539 46.3496 2.9362C46.3496 7.18612 46.3496 17.4717 46.3496 17.4717C46.3496 17.4717 45.049 16.7482 43.5742 15.0291C41.9171 13.0976 36.0225 5.29943 36.0225 5.29943C36.0225 5.29943 36.0225 12.6612 36.0225 15.3998C36.0225 15.9171 37.1521 16.6995 37.1521 16.6995H33.1503C33.1503 16.6995 34.2476 15.9108 34.2476 15.3998C34.2476 11.7191 34.2476 6.35008 34.2476 2.9362C34.2476 2.47751 33.1503 1.85677 33.1503 1.85677Z" fill="#005E6A"/>
<path fill-rule="evenodd" clip-rule="evenodd" d="M50.0186 1.85677H54.6161C54.6161 1.85677 53.3816 2.44337 53.3816 2.9362C53.3816 6.35008 53.3816 12.0107 53.3816 15.3998C53.3816 15.9384 54.6161 16.6995 54.6161 16.6995H50.0186C50.0186 16.6995 51.168 15.921 51.168 15.3998C51.168 11.3299 51.168 6.35008 51.168 2.9362C51.168 2.46238 50.0186 1.85677 50.0186 1.85677Z" fill="#005E6A"/>
<path fill-rule="evenodd" clip-rule="evenodd" d="M19.6239 1.85677C19.6239 1.85677 20.8159 2.45295 20.8159 2.9362C20.8159 6.35008 20.8159 11.3299 20.8159 15.3998C20.8159 15.9296 19.6239 16.6995 19.6239 16.6995C19.6239 16.6995 25.5786 16.6995 26.4351 16.6995C26.8608 16.6995 31.6286 15.9175 31.6286 12.2302C31.6286 8.54294 27.925 8.19768 27.925 8.19768C27.925 8.19768 30.1812 7.56848 30.1812 5.04574C30.1812 2.3265 26.8608 1.85677 26.4351 1.85677C25.5504 1.85677 19.6239 1.85677 19.6239 1.85677ZM23.2423 7.95332V3.31302C23.2423 3.31302 25.2167 3.31302 26.0094 3.31302C26.4351 3.31302 27.925 3.81161 27.925 5.66142C27.925 7.18612 26.4351 7.95332 26.0094 7.95332C25.0443 7.95332 23.2423 7.95332 23.2423 7.95332ZM23.2423 9.17036C23.2423 9.17036 26.0094 9.17036 26.4351 9.17036C26.8608 9.17036 29.3724 9.82478 29.3724 12.0107C29.3724 14.2393 26.8608 15.0291 26.4351 15.0291C26.0094 15.0291 23.2423 15.0291 23.2423 15.0291V9.17036Z" fill="#005E6A"/>
</svg>
